<svg version="1.2" xmlns="http://www.w3.org/2000/svg" viewBox="0 0 500 500" width="500" height="500">
	<defs>
		<!-- Single color with opacity layers for depth -->
		<linearGradient id="monoBack" x1="0%" y1="0%" x2="100%" y2="100%">
			<stop offset="0%" style="stop-color:currentColor;stop-opacity:0.4" />
			<stop offset="100%" style="stop-color:currentColor;stop-opacity:0.25" />
		</linearGradient>

		<linearGradient id="monoMid" x1="0%" y1="0%" x2="100%" y2="100%">
			<stop offset="0%" style="stop-color:currentColor;stop-opacity:0.7" />
			<stop offset="100%" style="stop-color:currentColor;stop-opacity:0.45" />
		</linearGradient>

		<linearGradient id="monoFront" x1="0%" y1="0%" x2="100%" y2="100%">
			<stop offset="0%" style="stop-color:currentColor;stop-opacity:1" />
			<stop offset="100%" style="stop-color:currentColor;stop-opacity:0.75" />
		</linearGradient>
	</defs>

	<g id="mono-logo" fill="#22C55E">
		<!-- Back layer -->
		<path
			fill="url(#monoBack)"
			d="m341.87 201.52c0.18 1.9 0.35 5.19 0.38 7.32 0.02 2.14-0.26 5.97-0.64 8.53-0.38 2.57-1.18 6.29-1.79 8.29-0.61 1.99-1.99 5.61-3.07 8.04-1.08 2.42-3.32 6.51-4.96 9.08-1.65 2.58-5.22 7.27-7.93 10.42-2.72 3.16-7.06 7.76-9.66 10.22-2.59 2.46-6.64 6.12-8.99 8.13-2.35 2.01-8.54 6.96-13.75 10.99-5.21 4.04-11.72 8.98-14.45 10.98-2.74 2-10.63 8-17.55 13.34-6.92 5.33-12.59 9.82-12.58 9.97 0.01 0.14 1.49 0.27 3.30 0.29 2.51 0.02 3.76 0.31 5.32 1.24 1.12 0.67 4.99 3.61 8.61 6.53 3.62 2.92 12.50 10.44 19.75 16.72 7.26 6.28 17.42 15.22 22.57 19.86 5.16 4.64 15.21 13.82 22.34 20.39 7.14 6.58 22.82 21.17 34.87 32.42 12.07 11.28 24.04 22.15 26.57 24.14 2.54 1.99 5.86 4.18 7.38 4.86 1.59 0.72 4.21 1.35 6.20 1.50 2.39 0.19 4.23 0 6.06-0.61 1.95-0.65 3.14-1.50 4.65-3.30 1.51-1.80 2.21-3.20 2.73-5.51 0.52-2.28 0.61-4.06 0.34-6.84-0.20-2.06-0.91-6.64-1.58-10.17-0.67-3.53-2.09-10.03-3.16-14.43-1.06-4.41-2.67-10.76-3.58-14.13-0.91-3.37-2.73-9.95-4.06-14.63-1.32-4.67-4.59-15.41-7.25-23.86-2.66-8.43-6.42-20.07-8.35-25.87-1.93-5.79-5.13-15.14-7.11-20.77-1.98-5.63-5.33-14.95-7.43-20.70-2.11-5.76-6.06-16.33-8.78-23.50-2.72-7.16-6.90-18.04-9.29-24.18-2.40-6.13-6.72-17.09-9.60-24.34-2.88-7.24-5.38-13.32-5.54-13.52-0.17-0.19-0.16 1.20 0.03 3.10z"
		/>

		<!-- Middle layer -->
		<path
			fill="url(#monoMid)"
			d="m297.36 92.87c-0.16 0.49-0.29 1.74-0.28 2.79 0 1.04-0.48 4.18-1.07 6.97-0.59 2.79-1.90 7.82-2.91 11.17-1 3.36-2.70 8.62-3.76 11.70-1.06 3.09-3.61 9.86-5.67 15.05-2.06 5.20-5.36 13.14-7.33 17.65-1.97 4.51-5.55 12.12-7.95 16.93-2.40 4.80-5 10.01-5.78 11.57-0.79 1.56-3.32 6.31-5.63 10.56-2.32 4.26-6.27 11.23-8.79 15.50-2.52 4.26-6.36 10.56-8.52 13.98-2.16 3.42-5.40 8.56-7.19 11.41-1.79 2.86-6.03 9.18-9.41 14.05-3.38 4.87-7.57 10.75-9.30 13.07-1.73 2.32-5.71 7.72-8.83 12.01-3.14 4.28-9.99 13.22-15.23 19.87-5.26 6.65-14.30 17.89-20.10 24.99-5.81 7.11-16.47 20.03-23.70 28.73-7.24 8.70-18.68 22.58-25.42 30.83-6.76 8.27-14.70 18.15-17.66 21.96-2.95 3.81-7.56 9.77-10.24 13.26-2.69 3.49-6.20 8.20-7.81 10.46-1.61 2.26-3.06 4.60-3.22 5.19-0.16 0.59-0.18 1.80-0.04 2.68 0.13 0.89 0.84 2.76 1.58 4.16 1.03 1.95 1.96 2.91 3.96 4.03 2.30 1.30 3.14 1.48 6.97 1.45 3.48-0.02 4.91-0.29 7.13-1.31 1.52-0.71 4.85-2.92 7.40-4.92 2.54-1.99 10.99-9.57 18.75-16.84 7.76-7.25 15.34-14.36 16.87-15.80 1.52-1.44 7.02-6.55 12.21-11.36 5.19-4.80 15.22-14.01 22.29-20.45 7.06-6.44 17.16-15.52 22.44-20.17 5.28-4.65 12.98-11.32 17.11-14.82 4.14-3.50 10.18-8.50 13.44-11.11 3.25-2.62 7.70-6.10 9.88-7.75 2.19-1.65 4.19-3 4.46-3 0.27 0 0.83-0.40 1.25-0.88 0.42-0.49 6.99-5.65 14.59-11.47 7.60-5.81 14.62-11.13 15.61-11.83 1-0.69 6.69-5.02 12.65-9.62 5.95-4.59 12.75-10 15.10-12.01 2.35-2.01 6.40-5.67 8.99-8.13 2.60-2.46 6.94-7.06 9.66-10.22 2.71-3.15 6.28-7.84 7.93-10.42 1.64-2.57 3.88-6.66 4.96-9.08 1.08-2.43 2.46-6.05 3.07-8.04 0.61-2 1.44-5.84 1.84-8.54 0.56-3.76 0.66-6.44 0.42-11.38-0.18-3.54-0.40-6.91-0.50-7.48-0.10-0.56-2.38-6.48-5.07-13.13-2.69-6.65-8.51-20.85-12.93-31.55-4.41-10.69-11.25-27.10-15.19-36.48-3.94-9.36-7.97-18.83-8.95-21.06-1.32-3-1.86-3.82-2.08-3.17z"
		/>

		<!-- Front layer -->
		<path
			fill="url(#monoFront)"
			d="m244.51 27.29c-1.22 0.25-3.21 0.82-4.43 1.27-1.21 0.45-3.21 1.35-4.42 1.99-1.22 0.64-3.42 2.17-4.88 3.39-1.46 1.23-3.72 3.67-5.01 5.43-1.65 2.25-4.07 7.03-8.10 16.02-3.16 7.07-9.19 20.92-13.39 30.79-4.21 9.88-9.30 21.87-11.30 26.62-2 4.76-4.86 11.52-6.35 15.02-1.49 3.5-3.32 7.87-4.07 9.69-0.74 1.83-4.47 10.80-8.29 19.95-3.82 9.16-7.84 18.87-8.91 21.55-1.08 2.69-3.77 9.29-5.97 14.68-2.21 5.39-5.36 13.17-7.01 17.29-1.65 4.13-4.96 12.52-7.38 18.65-2.41 6.14-6.06 15.49-8.11 20.79-2.05 5.30-5.66 14.80-8.03 21.12-2.38 6.33-5.85 15.75-7.72 20.94-1.87 5.19-5.08 14.29-7.14 20.22-2.06 5.94-5.83 17.09-8.39 24.78-2.55 7.71-6.60 20.46-8.99 28.34-2.39 7.89-5.42 18.31-6.74 23.15-1.31 4.84-3.16 12.04-4.10 16.01-0.94 3.97-2.30 10.23-3.02 13.91-0.73 3.69-1.44 8.75-1.59 11.26-0.21 3.46-0.16 4.17 0.20 2.95 0.26-0.88 1.79-3.46 3.41-5.72 1.61-2.26 5.12-6.97 7.81-10.46 2.68-3.49 7.29-9.45 10.24-13.26 2.96-3.81 10.90-13.69 17.66-21.96 6.74-8.25 18.18-22.13 25.42-30.83 7.23-8.70 17.89-21.62 23.70-28.73 5.80-7.10 14.84-18.34 20.10-24.99 5.24-6.65 12.09-15.59 15.23-19.87 3.12-4.29 7.10-9.69 8.83-12.01 1.73-2.32 5.92-8.20 9.30-13.07 3.38-4.87 7.62-11.19 9.41-14.05 1.79-2.85 5.03-7.99 7.19-11.41 2.16-3.42 6-9.72 8.52-13.98 2.52-4.27 6.47-11.24 8.79-15.50 2.31-4.25 4.84-9 5.63-10.56 0.78-1.56 3.38-6.77 5.78-11.57 2.40-4.81 5.98-12.42 7.95-16.93 1.97-4.51 5.27-12.45 7.33-17.65 2.06-5.19 4.61-11.96 5.67-15.05 1.06-3.08 2.76-8.34 3.76-11.70 1.01-3.35 2.32-8.38 2.91-11.17 0.59-2.79 1.07-5.98 1.07-7.10 0-1.11 0.18-2.37 0.40-2.79 0.31-0.61 0.45-0.51 0.69 0.51 0.16 0.70 0.39 1.15 0.50 1.01 0.11-0.14-0.05-0.87-0.37-1.62-0.31-0.76-0.76-1.21-1.01-1.01-0.26 0.21-0.30 0.10-0.11-0.28 0.20-0.37-3.41-9.35-8.83-21.98-5.03-11.71-9.96-22.85-10.97-24.79-1.04-2.01-3.37-5.23-5.42-7.53-2.32-2.59-4.69-4.66-6.68-5.85-1.70-1.01-4.68-2.31-6.62-2.88-1.95-0.57-5.43-1.13-7.74-1.26-2.31-0.12-5.19-0.02-6.41 0.23z"
		/>
	</g>
</svg>
