<svg version="1.2" xmlns="http://www.w3.org/2000/svg" viewBox="460 100 590 800" width="590" height="800">
	<defs>
		<!-- Green gradient matching website primary colors -->
		<linearGradient id="pinGradient" x1="0%" y1="0%" x2="100%" y2="100%">
			<stop offset="0%" style="stop-color:#22C55E;stop-opacity:1" />
			<stop offset="100%" style="stop-color:#15803D;stop-opacity:1" />
		</linearGradient>
		<!-- Subtle map texture pattern -->
		<pattern id="mapTexture" patternUnits="userSpaceOnUse" width="60" height="60">
			<path d="M0 30 Q15 25, 30 30 Q45 35, 60 30" stroke="rgba(255,255,255,0.08)" stroke-width="1" fill="none"/>
			<path d="M0 45 Q15 40, 30 45 Q45 50, 60 45" stroke="rgba(255,255,255,0.06)" stroke-width="1" fill="none"/>
			<path d="M0 15 Q15 10, 30 15 Q45 20, 60 15" stroke="rgba(255,255,255,0.06)" stroke-width="1" fill="none"/>
		</pattern>
	</defs>
	<g id="pin icon  copy">
		<path id="Path 1" fill-rule="evenodd" fill="url(#pinGradient)" d="m719.07 121.99c-9.52 0.96-16.92 2.25-27.12 4.63-10.87 2.53-27.47 9.11-40.53 14.35-13.06 5.23-34.43 16.92-47.49 25.98-13.06 9.06-32.44 25.38-43.07 36.28-10.63 10.89-26.69 31.51-35.68 45.8-9 14.3-20.26 36.39-25.02 49.09-4.76 12.71-11 34.8-13.87 49.1-3.19 15.87-5.23 38.07-5.25 57.03-0.03 21.04 1.78 39.2 5.61 56.32 3.58 15.96 11.71 38.02 22.11 59.92 9.05 19.06 29.57 54.8 45.6 79.42 16.03 24.62 60.26 90.89 98.29 147.28 38.03 56.38 73.11 106.77 77.96 111.96 7.27 7.77 10.91 9.43 20.69 9.38 8.39-0.03 14.13-2.05 19.56-6.86 4.22-3.74 14.53-17.06 22.9-29.6 8.37-12.53 41.61-61.78 73.88-109.43 32.26-47.65 70.67-105.48 85.36-128.52 14.68-23.04 32.24-52.93 39.01-66.42 6.78-13.5 14.7-31.68 17.6-40.42 2.91-8.74 7.11-24.65 9.34-35.38 2.23-10.72 4.05-33.13 4.05-49.81 0-22.33-1.84-38.31-6.98-60.65-3.85-16.67-10.85-39.74-15.56-51.26-4.71-11.51-15.71-31.94-24.44-45.4-8.74-13.46-24.05-32.77-34.04-42.92-9.99-10.15-28.22-25.37-40.51-33.82-12.29-8.45-31.15-19.27-41.91-24.04-10.75-4.77-30.24-11.61-43.3-15.19-17.47-4.79-33.95-7.33-61.77-8.09-20.79-0.57-27.93 0.51-35.42 1.27z"/>
		<!-- Subtle map texture overlay on the pin -->
		<path id="Path 1 texture" fill-rule="evenodd" fill="url(#mapTexture)" d="m719.07 121.99c-9.52 0.96-16.92 2.25-27.12 4.63-10.87 2.53-27.47 9.11-40.53 14.35-13.06 5.23-34.43 16.92-47.49 25.98-13.06 9.06-32.44 25.38-43.07 36.28-10.63 10.89-26.69 31.51-35.68 45.8-9 14.3-20.26 36.39-25.02 49.09-4.76 12.71-11 34.8-13.87 49.1-3.19 15.87-5.23 38.07-5.25 57.03-0.03 21.04 1.78 39.2 5.61 56.32 3.58 15.96 11.71 38.02 22.11 59.92 9.05 19.06 29.57 54.8 45.6 79.42 16.03 24.62 60.26 90.89 98.29 147.28 38.03 56.38 73.11 106.77 77.96 111.96 7.27 7.77 10.91 9.43 20.69 9.38 8.39-0.03 14.13-2.05 19.56-6.86 4.22-3.74 14.53-17.06 22.9-29.6 8.37-12.53 41.61-61.78 73.88-109.43 32.26-47.65 70.67-105.48 85.36-128.52 14.68-23.04 32.24-52.93 39.01-66.42 6.78-13.5 14.70-31.68 17.6-40.42 2.91-8.74 7.11-24.65 9.34-35.38 2.23-10.72 4.05-33.13 4.05-49.81 0-22.33-1.84-38.31-6.98-60.65-3.85-16.67-10.85-39.74-15.56-51.26-4.71-11.51-15.71-31.94-24.44-45.4-8.74-13.46-24.05-32.77-34.04-42.92-9.99-10.15-28.22-25.37-40.51-33.82-12.29-8.45-31.15-19.27-41.91-24.04-10.75-4.77-30.24-11.61-43.3-15.19-17.47-4.79-33.95-7.33-61.77-8.09-20.79-0.57-27.93 0.51-35.42 1.27z"/>
	</g>
	<path id="Path 0 copy" fill-rule="evenodd" fill="#f9f9f9" d="m774.6 220.61c-0.31 0.34-4.96 2.79-10.33 5.45-5.38 2.65-10.11 4.9-10.52 4.98-0.41 0.09-0.89 0.35-1.05 0.57-0.17 0.22-4.56 2.6-9.77 5.28-5.54 2.86-9.77 4.68-10.21 4.4-0.55-0.35-0.59-0.23-0.15 0.47 0.49 0.77 0.37 0.85-0.61 0.43-0.66-0.28-0.99-0.27-0.73 0.02 0.26 0.29-1.5 1.48-3.9 2.65-2.41 1.17-4.83 2.18-5.38 2.24-0.54 0.06-0.88 0.33-0.75 0.6 0.14 0.26-0.02 0.48-0.35 0.48-0.33 0-2.29 0.84-4.36 1.88-2.07 1.04-4.02 1.68-4.35 1.44-0.35-0.26-0.41-0.11-0.15 0.36 0.24 0.44 0.17 0.8-0.16 0.8-0.33 0-3.5 1.47-7.06 3.27-3.55 1.8-12.48 6.27-19.83 9.93-7.35 3.66-13.64 6.51-13.97 6.34-0.33-0.18-0.67-0.07-0.75 0.24-0.09 0.31-2.38 1.75-5.11 3.2-2.73 1.45-5.23 2.5-5.56 2.32-0.33-0.18-0.67-0.07-0.75 0.24-0.08 0.31-1.84 1.46-3.91 2.56-2.1 1.12-4.08 1.8-4.5 1.53-0.56-0.35-0.6-0.23-0.15 0.47 0.47 0.74 0.38 0.84-0.46 0.47-0.63-0.28-0.93-0.21-0.75 0.17 0.17 0.36 0.03 0.64-0.3 0.64-0.33 0-2.02 0.72-3.75 1.59-1.74 0.87-3.36 1.44-3.61 1.28-0.25-0.17-0.44-0.09-0.43 0.18 0.01 0.26-1.74 1.34-3.89 2.4l-3.9 1.92c-0.29 209.05-0.14 251.17 0.26 251.13 0.33-0.04 3.25 1.67 6.49 3.78 3.23 2.11 5.87 4.06 5.86 4.32-0.02 0.27 0.17 0.36 0.42 0.21 0.25-0.14 2.01 0.65 3.91 1.77 1.91 1.11 3.39 2.17 3.31 2.35-0.09 0.17-0.02 0.25 0.14 0.17 0.17-0.07 2.13 0.86 4.36 2.09 2.23 1.22 4.05 2.51 4.05 2.86 0 0.35 0.27 0.5 0.61 0.32 0.33-0.18 0.6-0.03 0.6 0.32 0 0.35 0.27 0.5 0.6 0.32 0.33-0.18 1.14 0.26 1.8 0.96 0.66 0.7 1.2 1.14 1.2 0.96 0-0.18 1.91 0.76 4.23 2.08 2.33 1.32 4.22 2.62 4.21 2.88-0.01 0.27 0.18 0.43 0.43 0.36 0.24-0.07 1.12 0.12 1.95 0.42 0.83 0.3 2.79 1.37 4.36 2.37 1.57 1 2.92 1.82 3 1.82 0.08 0 0.08-17.29 0-38.43-0.12-30.44 0.01-38.33 0.6-37.95q0.74 0.48 0.3-0.32c-0.25-0.44-0.31-1.66-0.15-2.72 0.21-1.31 0.54-1.77 1.05-1.44q0.74 0.48 0.3-0.32c-0.25-0.44 0.23-2.24 1.06-4 1.01-2.16 1.74-3.05 2.25-2.73 0.44 0.28 0.58 0.21 0.35-0.16-0.23-0.35 0.04-1.27 0.6-2.04 0.55-0.77 2.02-2.29 3.26-3.36 1.34-1.17 2.55-1.77 2.99-1.48q0.75 0.48 0.3-0.32c-0.26-0.47-0.07-0.93 0.46-1.12 0.5-0.18 1.17-0.18 1.5 0 0.33 0.17 0.61 0.03 0.61-0.32 0-0.36 0.74-0.89 1.65-1.2 0.91-0.3 2.46-0.41 3.45-0.24 0.99 0.17 2.41-0.02 3.16-0.41 1.03-0.55 1.24-0.54 0.9 0.05-0.34 0.58 0.19 0.66 2.1 0.32 1.58-0.27 2.56-0.2 2.56 0.2 0 0.35 0.27 0.49 0.6 0.32 0.33-0.18 1.27-0.18 2.1 0q1.5 0.32 1.06 1.12c-0.26 0.47-0.2 0.62 0.15 0.36 0.33-0.24 1.47-0.02 2.55 0.48q1.93 0.92 1.5 1.71-0.45 0.79 0.3 0.32c0.47-0.29 1.76 0.61 3.46 2.41 1.48 1.59 2.56 3.17 2.4 3.52-0.17 0.36-0.03 0.64 0.3 0.64 0.33 0 1.01 0.87 1.5 1.93 0.5 1.05 0.77 2.2 0.6 2.56-0.16 0.35-0.03 0.64 0.3 0.64 0.33 0 0.47 0.43 0.3 0.96-0.16 0.53-0.03 0.96 0.3 0.96 0.33 0 0.87 1.8 1.2 4 0.35 2.35 0.6 21.16 0.6 45.48l0.01 41.47c5.35 0.24 14.68 0.24 24.19 0.16l17.27-0.16c0.24-258.86 0.3-340.71 0.3-348.9 0-8.19-0.01-14.89-0.03-14.89-0.01 0-0.28 0.27-0.6 0.61zm-30.02 53.51l0.15 16.65c0.07 9.16 0.07 16.7 0 16.75-0.08 0.06-0.69 0.2-1.35 0.32-0.66 0.12-1.33 0.42-1.5 0.66-0.16 0.24-2.4 1.47-4.96 2.72-2.56 1.26-4.93 2.14-5.26 1.97-0.33-0.18-0.6-0.04-0.6 0.32 0 0.35-0.27 0.49-0.6 0.32-0.33-0.18-0.59-0.11-0.58 0.16 0.01 0.26-1.81 1.31-4.06 2.32-2.24 1.01-5.09 2.38-8.58 4.24v-16.33c0-15.69 0.05-16.36 1.2-16.97 0.66-0.36 1.54-0.43 1.95-0.16 0.55 0.35 0.59 0.23 0.15-0.47-0.47-0.75-0.38-0.85 0.46-0.48 0.63 0.28 0.93 0.21 0.75-0.17-0.17-0.36-0.03-0.64 0.3-0.64 0.33 0 2.83-1.17 5.56-2.59 2.72-1.41 5.36-2.64 5.86-2.72 0.49-0.08 1.17-0.39 1.5-0.69 0.33-0.3 2.63-1.6 5.11-2.88zm-66.71 36.33c2.65-1.38 4.88-2.56 4.96-2.61 0.08-0.06 0.15 7.83 0.15 17.51 0 11.53-0.21 17.51-0.6 17.30-0.33-0.18-0.59-0.11-0.58 0.16 0.01 0.26-0.67 0.84-1.51 1.28-0.83 0.44-1.85 0.58-2.26 0.32q-0.74-0.48-0.3 0.32c0.24 0.44 0.17 0.8-0.16 0.8-0.33 0-2.02 0.7-3.75 1.56-1.74 0.85-6 2.86-9.47 4.46-3.47 1.6-6.51 2.92-6.76 2.93-0.25 0.01-0.46-7.41-0.48-16.48-0.02-14.12 0.11-16.6 0.9-17.29 0.51-0.44 1.27-0.59 1.68-0.33 0.45 0.29 0.58 0.22 0.33-0.16-0.24-0.34 0.24-0.99 1.05-1.43 0.81-0.44 1.75-0.66 2.08-0.48 0.33 0.18 0.74 0.03 0.9-0.32 0.17-0.35 1.38-1.22 2.7-1.92 1.33-0.71 2.68-1.14 3.01-0.96 0.33 0.17 0.74-0.11 0.9-0.64 0.17-0.53 0.71-0.82 1.2-0.64 0.5 0.17 0.97 0.05 1.05-0.27 0.09-0.32 2.32-1.72 4.96-3.11zm66.71 17.28l0.15 15.14c0.08 8.33-0.06 15.37-0.31 15.64-0.24 0.27-0.98 0.61-1.65 0.75-0.66 0.15-1.26 0.28-1.35 0.31-0.08 0.03-0.35 0.03-0.6 0-0.25-0.03-0.58 0.22-0.75 0.56-0.16 0.34-2.13 1.52-4.36 2.62-2.23 1.1-4.32 1.85-4.65 1.67-0.33-0.17-0.6-0.03-0.6 0.32 0 0.36-0.28 0.5-0.61 0.32-0.33-0.17-0.59-0.1-0.57 0.16 0.01 0.27-1.34 1.13-3.01 1.93-1.66 0.79-3.36 1.22-3.77 0.96q-0.74-0.48-0.3 0.32c0.28 0.5 0 0.91-0.76 1.12-0.66 0.17-1.54 0.1-1.95-0.16q-0.74-0.48-0.3 0.32c0.29 0.51 0.01 0.92-0.75 1.12-1.18 0.31-1.21 0-1.21-14.73 0-13.1 0.12-15.01 0.91-14.73q0.89 0.31 0.45-0.47c-0.32-0.56-0.15-0.65 0.6-0.32 0.59 0.26 1.05 0.19 1.05-0.17 0-0.36 1.15-1.14 2.55-1.74 1.41-0.6 2.86-1.11 3.24-1.12 0.37-0.02 0.5-0.31 0.3-0.65-0.23-0.38 0.03-0.45 0.67-0.16 0.58 0.25 1.04 0.25 1.03-0.02-0.01-0.26 0.67-0.84 1.51-1.28 0.83-0.44 1.85-0.58 2.26-0.32 0.55 0.36 0.59 0.23 0.15-0.46-0.48-0.77-0.37-0.86 0.61-0.44 0.66 0.28 1 0.28 0.75-0.01-0.25-0.29 0.9-1.18 2.56-1.97 1.65-0.79 3.34-1.25 3.75-1.02 0.43 0.24 0.54 0.17 0.27-0.16-0.26-0.32 0.67-1.19 2.11-1.96zm-61.9 35.24l0.14 15.78c0.09 8.68-0.05 15.96-0.3 16.18-0.24 0.22-4.7 2.45-9.91 4.96-5.2 2.51-9.8 4.38-10.21 4.15-0.43-0.24-0.55-0.17-0.29 0.16 0.26 0.32-0.35 0.94-1.35 1.38-1 0.44-2.23 0.66-2.72 0.48-0.77-0.27-0.91-2.56-0.93-15.21-0.02-12.68 0.11-15.01 0.9-15.69 0.51-0.44 1.2-0.66 1.53-0.48 0.33 0.17 0.74-0.11 0.9-0.64 0.17-0.53 0.71-0.82 1.2-0.64 0.5 0.17 0.91 0.03 0.91-0.32 0-0.36 0.47-0.48 1.05-0.28 0.58 0.2 0.85 0.13 0.61-0.16-0.24-0.29 1.45-1.46 3.76-2.61 2.3-1.14 4.53-1.89 4.94-1.65 0.42 0.23 0.55 0.16 0.29-0.16-0.25-0.33 1.76-1.63 4.51-2.92zm60.17 16.98c0.95-0.58 1.8-1.07 1.88-1.08 0.08-0.02 0.15 6.46 0.15 28.79l-4.21 2.25c-2.31 1.23-4.47 2.09-4.8 1.92-0.34-0.18-0.67-0.08-0.76 0.21-0.08 0.29-1.7 1.3-3.6 2.24-1.9 0.94-3.73 1.57-4.06 1.39-0.33-0.18-0.59 0.04-0.58 0.48 0.01 0.44-0.13 0.59-0.3 0.32-0.18-0.26-0.73-0.05-1.22 0.48-0.5 0.53-1.24 0.87-1.65 0.75-0.42-0.11-1.16 0.19-1.66 0.69-0.49 0.49-1.24 0.73-1.65 0.53-0.41-0.2-0.89 0.06-1.05 0.59-0.17 0.53-0.71 0.96-1.2 0.96-0.78 0-0.88-1.94-0.75-14.25 0.13-13.15 0.23-14.24 1.2-14.09 0.58 0.09 1.01-0.1 0.96-0.43-0.05-0.33 1.51-1.36 3.46-2.29 1.95-0.93 4.01-1.74 4.59-1.81 0.58-0.06 1.06-0.27 1.06-0.47 0.01-0.2 0.95-0.85 2.1-1.44 1.16-0.6 2.37-0.94 2.7-0.76 0.33 0.17 0.6 0.03 0.6-0.32 0-0.36 0.27-0.5 0.6-0.32 0.33 0.17 0.59 0.1 0.58-0.16-0.01-0.27 0.73-0.83 1.65-1.26 0.93-0.43 2.09-0.86 2.58-0.96 0.5-0.1 1.07-0.34 1.28-0.54 0.21-0.2 1.16-0.83 2.1-1.42zm-63.3 37.37c1.39-0.72 2.73-1.31 2.98-1.32 0.25 0 0.45 6.76 0.45 30.09l-4.66 2.29c-2.56 1.25-5.13 2.55-5.7 2.88-0.58 0.33-1.33 0.45-1.66 0.28-0.33-0.18-0.59-0.11-0.58 0.16 0.01 0.26-0.67 0.84-1.5 1.28-0.84 0.44-1.86 0.58-2.27 0.32-0.55-0.36-0.59-0.23-0.15 0.46 0.47 0.76 0.38 0.86-0.46 0.49-0.57-0.26-1.11-0.22-1.2 0.1-0.08 0.31-1.83 1.39-7.64 4.23l0.28-30.1 3.01-1.74c1.65-0.96 3.27-1.66 3.6-1.55 0.33 0.11 0.87-0.16 1.2-0.59 0.33-0.44 2.5-1.67 4.81-2.73 2.31-1.07 4.61-2.03 5.11-2.15 0.5-0.11 1.12-0.41 1.38-0.65 0.26-0.25 1.61-1.04 3-1.75zm110.1 27.51v137.07c2.33-0.4 4.09-0.83 5.41-1.21 1.32-0.39 3.75-0.87 5.41-1.09 1.65-0.22 3.48-0.66 4.05-0.98 0.58-0.32 1.33-0.45 1.66-0.27 0.33 0.18 0.6 0.03 0.6-0.32 0-0.35 0.4-0.5 0.9-0.32 0.49 0.18 0.9 0.03 0.9-0.32 0-0.35 0.41-0.5 0.9-0.32 0.5 0.18 1.04 0.03 1.2-0.32 0.17-0.35 1.72-1.1 3.46-1.66 1.73-0.56 5.11-1.86 7.51-2.88 2.4-1.03 4.63-1.72 4.96-1.54 0.33 0.17 0.59 0.1 0.58-0.16-0.02-0.27 1.67-1.3 3.75-2.29 2.08-0.99 7.16-3.72 11.29-6.07 4.13-2.34 7.72-4.19 7.97-4.12 0.24 0.08 0.44-0.07 0.43-0.33 0-0.27 1.01-1.13 2.26-1.92 1.24-0.79 2.51-1.22 2.81-0.96 0.3 0.26 0.37 0.12 0.15-0.33-0.22-0.44-0.13-0.8 0.21-0.8 0.33 0 2.29-1.29 4.35-2.87 2.07-1.57 3.89-2.8 4.06-2.72 0.16 0.08 0.24 0 0.17-0.17-0.08-0.18 0.8-1.11 1.95-2.08 1.15-0.97 2.42-1.57 2.84-1.34 0.41 0.23 0.55 0.16 0.32-0.16-0.24-0.32 0.29-1.16 1.19-1.87 0.89-0.7 1.89-1.18 2.23-1.06 0.34 0.11 0.41-0.03 0.16-0.32-0.24-0.3 0.16-0.97 0.91-1.49 0.74-0.53 1.55-0.96 1.8-0.96 0.24-0.01 0.46-0.3 0.48-0.65 0.02-0.35 0.63-1.32 1.36-2.14 0.72-0.83 2.06-1.91 2.96-2.4 0.91-0.5 1.66-1.34 1.66-1.86 0-0.53 0.4-0.96 0.9-0.96 0.67 0 0.76-0.3 0.35-1.13-0.3-0.61-0.45-2.27-0.33-3.68 0.12-1.41 0.27-11.78 0.35-23.06 0.07-11.27-0.07-21.21-0.31-22.09-0.24-0.88-0.22-1.27 0.05-0.86 0.27 0.4 0.42-26.69 0.33-60.21-0.12-47.93-0.31-60.96-0.9-61.02-0.41-0.04-3.11-1.33-6.01-2.88-2.91-1.55-5.06-3.07-4.81-3.39 0.26-0.33 0.13-0.4-0.29-0.16-0.41 0.23-1.16 0.28-1.65 0.1-0.5-0.17-0.77-0.61-0.6-0.96 0.18-0.38-0.12-0.45-0.75-0.17-0.84 0.37-0.93 0.27-0.46-0.48q0.59-0.94 0-0.53c-0.33 0.23-4.19-1.5-8.57-3.84-4.39-2.35-7.77-4.5-7.51-4.79 0.25-0.29-0.08-0.3-0.74-0.01-0.75 0.31-1.06 0.27-0.83-0.12 0.21-0.34 0.08-0.63-0.3-0.63-0.37 0-3.02-1.29-5.88-2.88-2.92-1.61-5.04-3.16-4.82-3.52 0.24-0.38 0.09-0.44-0.35-0.16-0.41 0.26-1.68-0.02-2.82-0.64-1.14-0.62-1.88-1.41-1.65-1.76q0.39-0.6-0.48-0.06-0.9 0.58-1.5-0.39c-0.33-0.53-0.81-1-1.05-1.06-0.25-0.05-1.26-0.38-2.26-0.73-0.99-0.36-1.66-0.93-1.5-1.28 0.18-0.39-0.12-0.46-0.75-0.18-0.84 0.37-0.93 0.27-0.46-0.48 0.44-0.7 0.4-0.82-0.15-0.47-0.41 0.27-1.41 0.12-2.22-0.32-0.81-0.44-1.36-1.01-1.2-1.28 0.15-0.26-0.2-0.27-0.78-0.01-0.82 0.36-0.93 0.26-0.5-0.48 0.33-0.57 0.33-0.77 0-0.49-0.3 0.25-2.62-0.69-5.14-2.09-2.53-1.4-4.62-2.9-4.65-3.34-0.02-0.43-0.25-0.59-0.51-0.34-0.26 0.25-2.83-0.83-5.72-2.4-2.9-1.57-5.26-3.14-5.26-3.5 0-0.35-0.27-0.49-0.6-0.32-0.33 0.18-1.01 0.18-1.51 0-0.53-0.19-0.71-0.64-0.45-1.11q0.45-0.79-0.3-0.32c-0.41 0.26-1.15 0.33-1.65 0.15-0.5-0.17-0.72-0.68-0.5-1.12 0.21-0.44 0.15-0.59-0.15-0.34-0.3 0.25-1.57-0.11-2.8-0.8-1.24-0.69-2.46-1.26-2.71-1.26-0.25 0-0.45 61.68-0.45 137.08z"/>
	<g id="Layer 1">
		<path id="Path 0" fill-rule="evenodd" fill="#f9f9f9" d="m774.6 220.61c-0.31 0.34-4.96 2.79-10.33 5.45-5.38 2.65-10.11 4.9-10.52 4.98-0.41 0.09-0.89 0.35-1.05 0.57-0.17 0.22-4.56 2.6-9.77 5.28-5.54 2.86-9.77 4.68-10.21 4.4-0.55-0.35-0.59-0.23-0.15 0.47 0.49 0.77 0.37 0.85-0.61 0.43-0.66-0.28-0.99-0.27-0.73 0.02 0.26 0.29-1.5 1.48-3.9 2.65-2.41 1.17-4.83 2.18-5.38 2.24-0.54 0.06-0.88 0.33-0.75 0.6 0.14 0.26-0.02 0.48-0.35 0.48-0.33 0-2.29 0.84-4.36 1.88-2.07 1.04-4.02 1.68-4.35 1.44-0.35-0.26-0.41-0.11-0.15 0.36 0.24 0.44 0.17 0.8-0.16 0.8-0.33 0-3.5 1.47-7.06 3.27-3.55 1.8-12.48 6.27-19.83 9.93-7.35 3.66-13.64 6.51-13.97 6.34-0.33-0.18-0.67-0.07-0.75 0.24-0.09 0.31-2.38 1.75-5.11 3.2-2.73 1.45-5.23 2.5-5.56 2.32-0.33-0.18-0.67-0.07-0.75 0.24-0.08 0.31-1.84 1.46-3.91 2.56-2.1 1.12-4.08 1.8-4.5 1.53-0.56-0.35-0.6-0.23-0.15 0.47 0.47 0.74 0.38 0.84-0.46 0.47-0.63-0.28-0.93-0.21-0.75 0.17 0.17 0.36 0.03 0.64-0.3 0.64-0.33 0-2.02 0.72-3.75 1.59-1.74 0.87-3.36 1.44-3.61 1.28-0.25-0.17-0.44-0.09-0.43 0.18 0.01 0.26-1.74 1.34-3.89 2.4l-3.9 1.92c-0.29 209.05-0.14 251.17 0.26 251.13 0.33-0.04 3.25 1.67 6.49 3.78 3.23 2.11 5.87 4.06 5.86 4.32-0.02 0.27 0.17 0.36 0.42 0.21 0.25-0.14 2.01 0.65 3.91 1.77 1.91 1.11 3.39 2.17 3.31 2.35-0.09 0.17-0.02 0.25 0.14 0.17 0.17-0.07 2.13 0.86 4.36 2.09 2.23 1.22 4.05 2.51 4.05 2.86 0 0.35 0.27 0.5 0.61 0.32 0.33-0.18 0.6-0.03 0.6 0.32 0 0.35 0.27 0.5 0.6 0.32 0.33-0.18 1.14 0.26 1.8 0.96 0.66 0.7 1.2 1.14 1.2 0.96 0-0.18 1.91 0.76 4.23 2.08 2.33 1.32 4.22 2.62 4.21 2.88-0.01 0.27 0.18 0.43 0.43 0.36 0.24-0.07 1.12 0.12 1.95 0.42 0.83 0.3 2.79 1.37 4.36 2.37 1.57 1 2.92 1.82 3 1.82 0.08 0 0.08-17.29 0-38.43-0.12-30.44 0.01-38.33 0.6-37.95q0.74 0.48 0.3-0.32c-0.25-0.44-0.31-1.66-0.15-2.72 0.21-1.31 0.54-1.77 1.05-1.44q0.74 0.48 0.3-0.32c-0.25-0.44 0.23-2.24 1.06-4 1.01-2.16 1.74-3.05 2.25-2.73 0.44 0.28 0.58 0.21 0.35-0.16-0.23-0.35 0.04-1.27 0.6-2.04 0.55-0.77 2.02-2.29 3.26-3.36 1.34-1.17 2.55-1.77 2.99-1.48q0.75 0.48 0.3-0.32c-0.26-0.47-0.07-0.93 0.46-1.12 0.5-0.18 1.17-0.18 1.5 0 0.33 0.17 0.61 0.03 0.61-0.32 0-0.36 0.74-0.89 1.65-1.2 0.91-0.3 2.46-0.41 3.45-0.24 0.99 0.17 2.41-0.02 3.16-0.41 1.03-0.55 1.24-0.54 0.9 0.05-0.34 0.58 0.19 0.66 2.1 0.32 1.58-0.27 2.56-0.2 2.56 0.2 0 0.35 0.27 0.49 0.6 0.32 0.33-0.18 1.27-0.18 2.1 0q1.5 0.32 1.06 1.12c-0.26 0.47-0.2 0.62 0.15 0.36 0.33-0.24 1.47-0.02 2.55 0.48q1.93 0.92 1.5 1.71-0.45 0.79 0.3 0.32c0.47-0.29 1.76 0.61 3.46 2.41 1.48 1.59 2.56 3.17 2.4 3.52-0.17 0.36-0.03 0.64 0.3 0.64 0.33 0 1.01 0.87 1.5 1.93 0.5 1.05 0.77 2.2 0.6 2.56-0.16 0.35-0.03 0.64 0.3 0.64 0.33 0 0.47 0.43 0.3 0.96-0.16 0.53-0.03 0.96 0.3 0.96 0.33 0 0.87 1.8 1.2 4 0.35 2.35 0.6 21.16 0.6 45.48l0.01 41.47c5.35 0.24 14.68 0.24 24.19 0.16l17.27-0.16c0.24-258.86 0.3-340.71 0.3-348.9 0-8.19-0.01-14.89-0.03-14.89-0.01 0-0.28 0.27-0.6 0.61zm-30.02 53.51l0.15 16.65c0.07 9.16 0.07 16.7 0 16.75-0.08 0.06-0.69 0.2-1.35 0.32-0.66 0.12-1.33 0.42-1.5 0.66-0.16 0.24-2.4 1.47-4.96 2.72-2.56 1.26-4.93 2.14-5.26 1.97-0.33-0.18-0.6-0.04-0.6 0.32 0 0.35-0.27 0.49-0.6 0.32-0.33-0.18-0.59-0.11-0.58 0.16 0.01 0.26-1.81 1.31-4.06 2.32-2.24 1.01-5.09 2.38-8.58 4.24v-16.33c0-15.69 0.05-16.36 1.2-16.97 0.66-0.36 1.54-0.43 1.95-0.16 0.55 0.35 0.59 0.23 0.15-0.47-0.47-0.75-0.38-0.85 0.46-0.48 0.63 0.28 0.93 0.21 0.75-0.17-0.17-0.36-0.03-0.64 0.3-0.64 0.33 0 2.83-1.17 5.56-2.59 2.72-1.41 5.36-2.64 5.86-2.72 0.49-0.08 1.17-0.39 1.5-0.69 0.33-0.3 2.63-1.6 5.11-2.88zm-66.71 36.33c2.65-1.38 4.88-2.56 4.96-2.61 0.08-0.06 0.15 7.83 0.15 17.51 0 11.53-0.21 17.51-0.6 17.30-0.33-0.18-0.59-0.11-0.58 0.16 0.01 0.26-0.67 0.84-1.51 1.28-0.83 0.44-1.85 0.58-2.26 0.32q-0.74-0.48-0.3 0.32c0.24 0.44 0.17 0.8-0.16 0.8-0.33 0-2.02 0.7-3.75 1.56-1.74 0.85-6 2.86-9.47 4.46-3.47 1.6-6.51 2.92-6.76 2.93-0.25 0.01-0.46-7.41-0.48-16.48-0.02-14.12 0.11-16.6 0.9-17.29 0.51-0.44 1.27-0.59 1.68-0.33 0.45 0.29 0.58 0.22 0.33-0.16-0.24-0.34 0.24-0.99 1.05-1.43 0.81-0.44 1.75-0.66 2.08-0.48 0.33 0.18 0.74 0.03 0.9-0.32 0.17-0.35 1.38-1.22 2.7-1.92 1.33-0.71 2.68-1.14 3.01-0.96 0.33 0.17 0.74-0.11 0.9-0.64 0.17-0.53 0.71-0.82 1.2-0.64 0.5 0.17 0.97 0.05 1.05-0.27 0.09-0.32 2.32-1.72 4.96-3.11zm66.71 17.28l0.15 15.14c0.08 8.33-0.06 15.37-0.31 15.64-0.24 0.27-0.98 0.61-1.65 0.75-0.66 0.15-1.26 0.28-1.35 0.31-0.08 0.03-0.35 0.03-0.6 0-0.25-0.03-0.58 0.22-0.75 0.56-0.16 0.34-2.13 1.52-4.36 2.62-2.23 1.1-4.32 1.85-4.65 1.67-0.33-0.17-0.6-0.03-0.6 0.32 0 0.36-0.28 0.5-0.61 0.32-0.33-0.17-0.59-0.1-0.57 0.16 0.01 0.27-1.34 1.13-3.01 1.93-1.66 0.79-3.36 1.22-3.77 0.96q-0.74-0.48-0.3 0.32c0.28 0.5 0 0.91-0.76 1.12-0.66 0.17-1.54 0.1-1.95-0.16q-0.74-0.48-0.3 0.32c0.29 0.51 0.01 0.92-0.75 1.12-1.18 0.31-1.21 0-1.21-14.73 0-13.1 0.12-15.01 0.91-14.73q0.89 0.31 0.45-0.47c-0.32-0.56-0.15-0.65 0.6-0.32 0.59 0.26 1.05 0.19 1.05-0.17 0-0.36 1.15-1.14 2.55-1.74 1.41-0.6 2.86-1.11 3.24-1.12 0.37-0.02 0.5-0.31 0.3-0.65-0.23-0.38 0.03-0.45 0.67-0.16 0.58 0.25 1.04 0.25 1.03-0.02-0.01-0.26 0.67-0.84 1.51-1.28 0.83-0.44 1.85-0.58 2.26-0.32 0.55 0.36 0.59 0.23 0.15-0.46-0.48-0.77-0.37-0.86 0.61-0.44 0.66 0.28 1 0.28 0.75-0.01-0.25-0.29 0.9-1.18 2.56-1.97 1.65-0.79 3.34-1.25 3.75-1.02 0.43 0.24 0.54 0.17 0.27-0.16-0.26-0.32 0.67-1.19 2.11-1.96zm-61.9 35.24l0.14 15.78c0.09 8.68-0.05 15.96-0.3 16.18-0.24 0.22-4.7 2.45-9.91 4.96-5.2 2.51-9.8 4.38-10.21 4.15-0.43-0.24-0.55-0.17-0.29 0.16 0.26 0.32-0.35 0.94-1.35 1.38-1 0.44-2.23 0.66-2.72 0.48-0.77-0.27-0.91-2.56-0.93-15.21-0.02-12.68 0.11-15.01 0.9-15.69 0.51-0.44 1.2-0.66 1.53-0.48 0.33 0.17 0.74-0.11 0.9-0.64 0.17-0.53 0.71-0.82 1.2-0.64 0.5 0.17 0.91 0.03 0.91-0.32 0-0.36 0.47-0.48 1.05-0.28 0.58 0.2 0.85 0.13 0.61-0.16-0.24-0.29 1.45-1.46 3.76-2.61 2.3-1.14 4.53-1.89 4.94-1.65 0.42 0.23 0.55 0.16 0.29-0.16-0.25-0.33 1.76-1.63 4.51-2.92zm60.17 16.98c0.95-0.58 1.8-1.07 1.88-1.08 0.08-0.02 0.15 6.46 0.15 28.79l-4.21 2.25c-2.31 1.23-4.47 2.09-4.8 1.92-0.34-0.18-0.67-0.08-0.76 0.21-0.08 0.29-1.7 1.3-3.6 2.24-1.9 0.94-3.73 1.57-4.06 1.39-0.33-0.18-0.59 0.04-0.58 0.48 0.01 0.44-0.13 0.59-0.3 0.32-0.18-0.26-0.73-0.05-1.22 0.48-0.5 0.53-1.24 0.87-1.65 0.75-0.42-0.11-1.16 0.19-1.66 0.69-0.49 0.49-1.24 0.73-1.65 0.53-0.41-0.2-0.89 0.06-1.05 0.59-0.17 0.53-0.71 0.96-1.2 0.96-0.78 0-0.88-1.94-0.75-14.25 0.13-13.15 0.23-14.24 1.2-14.09 0.58 0.09 1.01-0.1 0.96-0.43-0.05-0.33 1.51-1.36 3.46-2.29 1.95-0.93 4.01-1.74 4.59-1.81 0.58-0.06 1.06-0.27 1.06-0.47 0.01-0.2 0.95-0.85 2.1-1.44 1.16-0.6 2.37-0.94 2.7-0.76 0.33 0.17 0.6 0.03 0.6-0.32 0-0.36 0.27-0.5 0.6-0.32 0.33 0.17 0.59 0.1 0.58-0.16-0.01-0.27 0.73-0.83 1.65-1.26 0.93-0.43 2.09-0.86 2.58-0.96 0.5-0.1 1.07-0.34 1.28-0.54 0.21-0.2 1.16-0.83 2.1-1.42zm-63.3 37.37c1.39-0.72 2.73-1.31 2.98-1.32 0.25 0 0.45 6.76 0.45 30.09l-4.66 2.29c-2.56 1.25-5.13 2.55-5.7 2.88-0.58 0.33-1.33 0.45-1.66 0.28-0.33-0.18-0.59-0.11-0.58 0.16 0.01 0.26-0.67 0.84-1.5 1.28-0.84 0.44-1.86 0.58-2.27 0.32-0.55-0.36-0.59-0.23-0.15 0.46 0.47 0.76 0.38 0.86-0.46 0.49-0.57-0.26-1.11-0.22-1.2 0.1-0.08 0.31-1.83 1.39-7.64 4.23l0.28-30.1 3.01-1.74c1.65-0.96 3.27-1.66 3.6-1.55 0.33 0.11 0.87-0.16 1.2-0.59 0.33-0.44 2.5-1.67 4.81-2.73 2.31-1.07 4.61-2.03 5.11-2.15 0.5-0.11 1.12-0.41 1.38-0.65 0.26-0.25 1.61-1.04 3-1.75zm110.1 27.51v137.07c2.33-0.4 4.09-0.83 5.41-1.21 1.32-0.39 3.75-0.87 5.41-1.09 1.65-0.22 3.48-0.66 4.05-0.98 0.58-0.32 1.33-0.45 1.66-0.27 0.33 0.18 0.6 0.03 0.6-0.32 0-0.35 0.4-0.5 0.9-0.32 0.49 0.18 0.9 0.03 0.9-0.32 0-0.35 0.41-0.5 0.9-0.32 0.5 0.18 1.04 0.03 1.2-0.32 0.17-0.35 1.72-1.1 3.46-1.66 1.73-0.56 5.11-1.86 7.51-2.88 2.4-1.03 4.63-1.72 4.96-1.54 0.33 0.17 0.59 0.1 0.58-0.16-0.02-0.27 1.67-1.3 3.75-2.29 2.08-0.99 7.16-3.72 11.29-6.07 4.13-2.34 7.72-4.19 7.97-4.12 0.24 0.08 0.44-0.07 0.43-0.33 0-0.27 1.01-1.13 2.26-1.92 1.24-0.79 2.51-1.22 2.81-0.96 0.3 0.26 0.37 0.12 0.15-0.33-0.22-0.44-0.13-0.8 0.21-0.8 0.33 0 2.29-1.29 4.35-2.87 2.07-1.57 3.89-2.8 4.06-2.72 0.16 0.08 0.24 0 0.17-0.17-0.08-0.18 0.8-1.11 1.95-2.08 1.15-0.97 2.42-1.57 2.84-1.34 0.41 0.23 0.55 0.16 0.32-0.16-0.24-0.32 0.29-1.16 1.19-1.87 0.89-0.7 1.89-1.18 2.23-1.06 0.34 0.11 0.41-0.03 0.16-0.32-0.24-0.3 0.16-0.97 0.91-1.49 0.74-0.53 1.55-0.96 1.8-0.96 0.24-0.01 0.46-0.3 0.48-0.65 0.02-0.35 0.63-1.32 1.36-2.14 0.72-0.83 2.06-1.91 2.96-2.4 0.91-0.5 1.66-1.34 1.66-1.86 0-0.53 0.4-0.96 0.9-0.96 0.67 0 0.76-0.3 0.35-1.13-0.3-0.61-0.45-2.27-0.33-3.68 0.12-1.41 0.27-11.78 0.35-23.06 0.07-11.27-0.07-21.21-0.31-22.09-0.24-0.88-0.22-1.27 0.05-0.86 0.27 0.4 0.42-26.69 0.33-60.21-0.12-47.93-0.31-60.96-0.9-61.02-0.41-0.04-3.11-1.33-6.01-2.88-2.91-1.55-5.06-3.07-4.81-3.39 0.26-0.33 0.13-0.4-0.29-0.16-0.41 0.23-1.16 0.28-1.65 0.1-0.5-0.17-0.77-0.61-0.6-0.96 0.18-0.38-0.12-0.45-0.75-0.17-0.84 0.37-0.93 0.27-0.46-0.48q0.59-0.94 0-0.53c-0.33 0.23-4.19-1.5-8.57-3.84-4.39-2.35-7.77-4.5-7.51-4.79 0.25-0.29-0.08-0.3-0.74-0.01-0.75 0.31-1.06 0.27-0.83-0.12 0.21-0.34 0.08-0.63-0.3-0.63-0.37 0-3.02-1.29-5.88-2.88-2.92-1.61-5.04-3.16-4.82-3.52 0.24-0.38 0.09-0.44-0.35-0.16-0.41 0.26-1.68-0.02-2.82-0.64-1.14-0.62-1.88-1.41-1.65-1.76q0.39-0.6-0.48-0.06-0.9 0.58-1.5-0.39c-0.33-0.53-0.81-1-1.05-1.06-0.25-0.05-1.26-0.38-2.26-0.73-0.99-0.36-1.66-0.93-1.5-1.28 0.18-0.39-0.12-0.46-0.75-0.18-0.84 0.37-0.93 0.27-0.46-0.48 0.44-0.7 0.4-0.82-0.15-0.47-0.41 0.27-1.41 0.12-2.22-0.32-0.81-0.44-1.36-1.01-1.2-1.28 0.15-0.26-0.2-0.27-0.78-0.01-0.82 0.36-0.93 0.26-0.5-0.48 0.33-0.57 0.33-0.77 0-0.49-0.3 0.25-2.62-0.69-5.14-2.09-2.53-1.4-4.62-2.9-4.65-3.34-0.02-0.43-0.25-0.59-0.51-0.34-0.26 0.25-2.83-0.83-5.72-2.4-2.9-1.57-5.26-3.14-5.26-3.5 0-0.35-0.27-0.49-0.6-0.32-0.33 0.18-1.01 0.18-1.51 0-0.53-0.19-0.71-0.64-0.45-1.11q0.45-0.79-0.3-0.32c-0.41 0.26-1.15 0.33-1.65 0.15-0.5-0.17-0.72-0.68-0.5-1.12 0.21-0.44 0.15-0.59-0.15-0.34-0.3 0.25-1.57-0.11-2.8-0.8-1.24-0.69-2.46-1.26-2.71-1.26-0.25 0-0.45 61.68-0.45 137.08z"/>
	</g>
</svg>
